<?xml version="1.0" standalone="no"?>
<!DOCTYPE svg PUBLIC "-//W3C//DTD SVG 20010904//EN"
 "http://www.w3.org/TR/2001/REC-SVG-20010904/DTD/svg10.dtd">
<svg version="1.0" xmlns="http://www.w3.org/2000/svg"
 width="200.000000pt" height="200.000000pt" viewBox="0 0 200.000000 200.000000"
 preserveAspectRatio="xMidYMid meet">

<g transform="translate(0.000000,200.000000) scale(0.100000,-0.100000)"
fill="#000000" stroke="none">
<path d="M890 1746 c-109 -30 -139 -53 -361 -275 -230 -230 -250 -257 -279
-380 -25 -108 3 -249 69 -345 49 -70 422 -431 471 -456 137 -69 270 -71 405
-5 61 30 96 60 281 247 130 131 220 230 234 257 71 141 70 280 -3 426 -27 54
-412 442 -479 482 -96 58 -234 78 -338 49z m248 -64 c77 -30 131 -74 318 -264
180 -182 216 -232 241 -325 27 -104 7 -215 -57 -310 -54 -81 -382 -403 -449
-441 -111 -63 -257 -65 -375 -5 -66 33 -417 378 -464 456 -87 144 -79 308 22
444 60 80 371 384 426 416 102 59 230 70 338 29z"/>
<path d="M910 1656 c-94 -26 -125 -49 -321 -245 -209 -209 -231 -239 -251
-350 -14 -72 -1 -157 33 -229 31 -66 396 -431 461 -461 107 -51 229 -50 336 0
65 31 430 396 461 461 51 107 51 230 0 336 -26 55 -357 396 -429 442 -83 53
-198 72 -290 46z m203 -231 c72 -19 124 -45 165 -83 83 -78 -13 -166 -105 -96
-49 37 -96 54 -153 54 -176 0 -269 -175 -156 -291 31 -33 98 -68 127 -69 30 0
69 -40 69 -69 0 -65 -67 -80 -174 -41 -83 32 -154 93 -193 169 -127 245 127
502 420 426z m32 -269 c206 -96 260 -339 109 -489 -93 -92 -233 -127 -367 -92
-72 19 -124 45 -165 83 -83 78 13 166 105 96 101 -77 236 -71 316 14 87 92 27
245 -112 286 -66 19 -91 40 -91 76 0 71 85 82 205 26z"/>
</g>
</svg>
