<?xml version="1.0" standalone="no"?>
<!DOCTYPE svg PUBLIC "-//W3C//DTD SVG 20010904//EN"
 "http://www.w3.org/TR/2001/REC-SVG-20010904/DTD/svg10.dtd">
<svg version="1.0" xmlns="http://www.w3.org/2000/svg"
 width="800.000000pt" height="200.000000pt" viewBox="0 0 600.000000 150.000000"
 preserveAspectRatio="xMidYMid meet">

<g transform="translate(0.000000,150.000000) scale(0.100000,-0.100000)"
fill="#FFFFFF" stroke="none">
<path d="M525 1056 c-61 -29 -257 -224 -280 -279 -18 -44 -19 -115 -3 -171 15
-52 209 -255 273 -286 56 -27 154 -27 210 0 24 12 89 69 151 133 118 120 134
150 134 241 0 74 -23 112 -138 229 -118 121 -176 157 -252 157 -27 0 -65 -10
-95 -24z m180 -25 c23 -11 86 -66 151 -132 93 -96 112 -121 122 -161 24 -96
-3 -151 -144 -288 -133 -129 -177 -148 -278 -118 -30 9 -69 39 -150 118 -141
137 -168 192 -144 288 10 40 29 65 122 161 119 122 164 151 236 151 25 0 63
-9 85 -19z"/>
<path d="M545 1011 c-48 -22 -239 -214 -254 -254 -16 -41 -13 -114 4 -151 9
-18 64 -80 123 -138 81 -80 117 -109 147 -117 93 -26 129 -9 257 117 117 115
138 147 138 215 0 71 -14 95 -123 206 -106 107 -157 141 -217 141 -19 0 -53
-9 -75 -19z m179 -124 c45 -26 62 -48 53 -71 -9 -22 -40 -20 -79 4 -54 33
-145 19 -162 -25 -23 -60 4 -109 77 -139 25 -10 37 -21 37 -35 0 -78 -170 -6
-200 85 -23 70 11 148 81 182 60 30 141 29 193 -1z m-39 -116 c51 -23 102 -81
110 -125 25 -131 -143 -231 -275 -163 -49 25 -66 46 -57 71 8 21 55 21 80 -1
13 -12 35 -18 67 -18 125 0 140 146 18 181 -35 10 -47 36 -28 59 16 20 36 19
85 -4z"/>
<path d="M2915 1022 c-45 -21 -65 -55 -65 -108 0 -52 41 -89 115 -104 81 -17
122 -38 135 -70 28 -69 -28 -125 -118 -116 -30 2 -65 12 -79 21 -13 9 -32 14
-41 10 -15 -5 -13 -9 8 -25 33 -26 119 -44 164 -36 77 15 124 90 96 157 -19
44 -52 65 -134 83 -86 19 -116 43 -116 90 0 67 86 105 164 72 47 -19 56 -20
56 -3 0 38 -125 57 -185 29z"/>
<path d="M1163 1014 c-40 -20 -67 -75 -59 -122 9 -55 47 -88 129 -108 98 -24
130 -60 87 -99 -25 -22 -85 -23 -127 -1 -41 21 -63 20 -79 -1 -20 -26 -18 -30
30 -58 130 -76 275 -17 263 108 -5 58 -34 93 -89 107 -21 6 -56 15 -78 20 -24
7 -47 21 -57 37 -16 25 -16 26 6 44 29 23 68 24 122 2 41 -16 42 -16 61 7 15
18 16 25 6 38 -35 41 -154 56 -215 26z"/>
<path d="M1437 1023 c-4 -3 -7 -19 -7 -35 0 -27 1 -28 55 -28 l55 0 0 -180 0
-180 23 0 c44 0 47 14 47 191 l0 168 53 3 c51 3 52 4 55 36 l3 32 -139 0 c-76
0 -142 -3 -145 -7z"/>
<path d="M1777 821 c-53 -115 -97 -212 -97 -215 0 -3 13 -6 29 -6 32 0 56 18
66 50 6 18 15 20 95 20 87 0 90 -1 107 -27 10 -16 22 -31 28 -35 12 -9 65 -11
65 -2 0 5 -163 362 -184 402 -11 22 -20 7 -109 -187z m128 -17 c14 -31 25 -58
25 -60 0 -2 -25 -4 -55 -4 -30 0 -55 2 -55 4 0 10 50 116 55 116 3 0 16 -25
30 -56z"/>
<path d="M2120 815 l0 -216 33 3 32 3 3 93 c1 50 6 92 10 92 4 -1 36 -37 72
-81 79 -98 93 -109 144 -109 l39 0 -24 30 c-13 16 -52 63 -86 103 l-62 74 78
109 c76 105 78 109 54 112 -51 7 -69 -7 -138 -108 -38 -55 -72 -100 -76 -100
-5 0 -10 46 -11 103 l-3 102 -32 3 -33 3 0 -216z"/>
<path d="M2490 815 l0 -215 145 0 c144 0 145 0 145 23 0 41 -11 46 -115 49
l-100 3 0 50 0 50 80 5 80 5 3 33 3 32 -86 0 -86 0 3 53 3 52 100 3 c104 3
115 8 115 50 0 22 -1 22 -145 22 l-145 0 0 -215z"/>
<path d="M3210 816 c0 -185 2 -216 15 -216 12 0 15 17 15 95 l0 95 130 0 129
0 3 -92 c2 -63 7 -93 16 -96 10 -3 12 40 10 209 -2 159 -6 213 -15 217 -10 3
-13 -22 -13 -102 l0 -106 -130 0 -129 0 -3 102 c-2 70 -7 103 -15 106 -10 3
-13 -44 -13 -212z"/>
<path d="M3696 847 c-118 -272 -109 -247 -91 -247 9 0 24 19 35 45 l19 45 119
0 118 0 22 -45 c12 -25 28 -45 36 -45 10 0 -12 62 -75 208 -50 114 -94 210
-98 214 -4 5 -42 -74 -85 -175z m138 -10 c25 -60 46 -111 46 -113 0 -2 -45 -4
-100 -4 -55 0 -100 3 -100 8 0 18 96 230 101 224 4 -4 28 -56 53 -115z"/>
<path d="M4020 814 c0 -168 3 -215 13 -212 8 3 13 30 15 76 l3 72 58 0 58 0
47 -70 c42 -64 69 -90 81 -78 2 2 -16 34 -40 71 -25 36 -45 70 -45 74 0 5 13
14 29 20 87 33 93 191 9 243 -27 16 -50 20 -130 20 l-98 0 0 -216z m215 170
c40 -26 56 -98 33 -149 -18 -40 -57 -55 -143 -55 l-75 0 0 110 0 110 80 0 c56
0 88 -5 105 -16z"/>
<path d="M4390 815 l0 -215 130 0 c109 0 130 2 130 15 0 12 -19 15 -115 15
l-115 0 0 85 0 85 90 0 c73 0 90 3 90 15 0 12 -17 15 -90 15 l-90 0 0 85 0 85
115 0 c96 0 115 3 115 15 0 13 -21 15 -130 15 l-130 0 0 -215z"/>
<path d="M1723 424 c-4 -10 1 -22 10 -29 22 -16 21 -22 0 -28 -14 -4 -12 -5 5
-6 25 -1 29 20 7 39 -20 16 -19 34 1 26 8 -3 12 -2 9 4 -9 15 -25 12 -32 -6z"/>
<path d="M2287 433 c-4 -3 -7 -21 -7 -40 0 -28 3 -33 23 -32 16 1 18 2 5 6
-10 2 -18 8 -18 13 0 5 8 11 18 13 16 4 16 5 0 6 -22 1 -24 21 -3 21 8 0 15 5
15 10 0 11 -23 14 -33 3z"/>
<path d="M3452 400 c0 -25 2 -39 5 -32 4 10 8 10 21 0 15 -12 16 -11 4 4 -8 9
-10 23 -6 29 4 7 3 9 -4 5 -6 -3 -12 3 -15 16 -2 13 -5 3 -5 -22z"/>
<path d="M3593 424 c-4 -10 1 -22 10 -29 21 -15 22 -29 2 -21 -8 3 -15 1 -15
-4 0 -6 9 -10 20 -10 24 0 28 35 5 44 -8 3 -15 10 -15 17 0 6 7 8 16 5 8 -3
12 -2 9 4 -9 15 -25 12 -32 -6z"/>
<path d="M1941 399 c-1 -24 3 -36 13 -36 8 0 13 10 12 23 0 12 -4 20 -8 18 -3
-2 -9 4 -11 13 -3 10 -5 2 -6 -18z"/>
<path d="M2523 395 c0 -22 2 -30 4 -17 2 12 2 30 0 40 -3 9 -5 -1 -4 -23z"/>
<path d="M2981 394 c1 -24 3 -30 6 -16 2 12 9 20 14 17 15 -10 10 12 -6 25
-13 11 -15 7 -14 -26z"/>
<path d="M3017 403 c-3 -16 -1 -32 4 -37 5 -6 9 4 9 27 0 44 -6 48 -13 10z"/>
<path d="M1800 391 c0 -23 5 -31 18 -31 14 0 14 2 3 9 -8 5 -11 16 -8 25 3 8
2 18 -3 21 -6 4 -10 -7 -10 -24z"/>
<path d="M2141 406 c-15 -17 -4 -46 18 -47 13 0 12 -2 -4 -10 l-20 -9 20 3
c14 1 21 11 23 33 3 35 -19 52 -37 30z m29 -22 c0 -16 -16 -19 -25 -4 -8 13 4
32 16 25 5 -4 9 -13 9 -21z"/>
<path d="M2441 406 c-15 -18 -3 -48 18 -44 21 4 27 44 7 51 -8 3 -19 0 -25 -7z
m29 -22 c0 -16 -16 -19 -25 -4 -8 13 4 32 16 25 5 -4 9 -13 9 -21z"/>
<path d="M2648 415 c-7 -7 3 -55 11 -55 8 0 7 47 -1 55 -2 3 -7 3 -10 0z"/>
<path d="M2761 406 c-16 -19 -7 -46 14 -46 22 0 30 29 13 46 -13 13 -16 13
-27 0z m29 -22 c0 -8 -7 -14 -15 -14 -15 0 -21 21 -9 33 10 9 24 -2 24 -19z"/>
<path d="M3150 391 c0 -23 5 -31 18 -31 14 0 14 2 3 9 -8 5 -11 16 -8 25 3 8
2 18 -3 21 -6 4 -10 -7 -10 -24z"/>
<path d="M3311 406 c-15 -18 -3 -48 18 -44 21 4 27 44 7 51 -8 3 -19 0 -25 -7z
m29 -22 c0 -16 -16 -19 -25 -4 -8 13 4 32 16 25 5 -4 9 -13 9 -21z"/>
<path d="M3755 410 c-4 -6 -2 -17 5 -24 8 -11 8 -15 -2 -19 -8 -4 -7 -6 5 -6
9 -1 17 6 17 14 0 8 -4 15 -10 15 -5 0 -10 5 -10 11 0 5 5 7 12 3 7 -4 8 -3 4
4 -9 15 -13 15 -21 2z"/>
<path d="M3822 394 c2 -15 10 -29 18 -31 12 -4 13 -3 1 5 -8 6 -11 17 -8 26 3
8 1 18 -4 22 -7 4 -9 -4 -7 -22z"/>
<path d="M3890 405 c-16 -19 -6 -45 17 -44 16 0 16 1 -2 9 -16 7 -17 9 -3 9
23 1 31 16 14 30 -10 8 -16 8 -26 -4z m20 -5 c0 -5 -5 -10 -11 -10 -5 0 -7 5
-4 10 3 6 8 10 11 10 2 0 4 -4 4 -10z"/>
<path d="M3972 412 c-7 -2 -11 -16 -11 -30 1 -21 2 -23 6 -7 9 35 23 41 24 10
0 -17 3 -23 6 -15 14 43 16 44 24 15 l8 -30 -2 29 c-2 29 -22 39 -55 28z"/>
<path d="M1878 391 c-23 -23 -23 -31 2 -31 15 0 20 7 20 25 0 29 0 29 -22 6z"/>
<path d="M2012 385 c0 -16 2 -22 5 -12 2 9 2 23 0 30 -3 6 -5 -1 -5 -18z"/>
<path d="M2062 385 c0 -16 2 -22 5 -12 2 9 2 23 0 30 -3 6 -5 -1 -5 -18z"/>
<path d="M2088 385 c2 -14 6 -25 8 -25 2 0 4 11 4 25 0 14 -4 25 -9 25 -4 0
-6 -11 -3 -25z"/>
<path d="M2365 390 c9 -30 13 -35 21 -27 3 3 -2 16 -11 29 l-17 23 7 -25z"/>
<path d="M2564 385 c1 -13 9 -21 24 -23 18 -3 22 1 22 22 0 14 -4 26 -10 26
-5 0 -10 -9 -10 -20 0 -25 -17 -26 -23 -2 -3 13 -4 12 -3 -3z"/>
<path d="M2712 385 c0 -16 2 -22 5 -12 2 9 2 23 0 30 -3 6 -5 -1 -5 -18z"/>
<path d="M2830 385 c0 -14 2 -25 4 -25 2 0 6 11 8 25 3 14 1 25 -3 25 -5 0 -9
-11 -9 -25z"/>
<path d="M2860 386 c0 -14 5 -26 10 -26 6 0 10 9 10 19 0 11 -4 23 -10 26 -6
4 -10 -5 -10 -19z"/>
<path d="M3070 388 c0 -23 4 -28 23 -27 21 0 21 1 2 9 -17 7 -17 9 -2 9 9 1
17 9 17 19 0 14 -2 15 -10 2 -9 -13 -11 -13 -20 0 -8 12 -10 9 -10 -12z"/>
<path d="M3211 403 c-1 -6 2 -19 5 -28 5 -13 9 -14 15 -3 8 11 11 11 18 -1 7
-11 10 -9 16 8 4 13 4 25 1 28 -3 4 -6 0 -6 -8 0 -12 -2 -11 -10 1 -8 12 -11
13 -19 1 -7 -11 -9 -11 -14 0 -3 9 -6 9 -6 2z"/>
<path d="M3390 385 c0 -14 2 -25 4 -25 2 0 6 11 8 25 3 14 1 25 -3 25 -5 0 -9
-11 -9 -25z"/>
<path d="M3674 375 c1 -19 2 -35 3 -35 1 0 9 13 18 30 17 32 20 53 5 30 -8
-12 -12 -12 -18 -2 -5 8 -8 -1 -8 -23z"/>
</g>
</svg>
