<?xml version="1.0" standalone="no"?>
<!DOCTYPE svg PUBLIC "-//W3C//DTD SVG 20010904//EN"
 "http://www.w3.org/TR/2001/REC-SVG-20010904/DTD/svg10.dtd">
<svg version="1.0" xmlns="http://www.w3.org/2000/svg"
 width="48.000000pt" height="48.000000pt" viewBox="0 0 48.000000 48.000000"
 preserveAspectRatio="xMidYMid meet">

<g transform="translate(0.000000,48.000000) scale(0.100000,-0.100000)"
fill="#FFFFFF" stroke="none">
<path d="M128 352 c-63 -64 -68 -72 -68 -112 0 -40 5 -48 68 -112 64 -63 72
-68 112 -68 40 0 48 5 112 68 63 64 68 72 68 112 0 40 -5 48 -68 112 -64 63
-72 68 -112 68 -40 0 -48 -5 -112 -68z m218 -6 c58 -58 64 -68 64 -106 0 -38
-6 -48 -64 -106 -58 -58 -68 -64 -106 -64 -38 0 -48 6 -106 64 -58 58 -64 68
-64 106 0 38 6 48 64 106 58 58 68 64 106 64 38 0 48 -6 106 -64z"/>
<path d="M205 388 c-39 -21 -114 -102 -120 -129 -4 -16 0 -39 9 -56 19 -39 99
-111 129 -118 33 -9 74 14 125 69 67 72 66 103 -7 179 -37 40 -80 67 -103 67
-7 0 -22 -6 -33 -12z m85 -53 c17 -9 30 -20 30 -26 0 -15 -30 -23 -43 -10 -16
16 -52 14 -67 -4 -18 -21 -8 -48 23 -63 30 -14 35 -30 13 -38 -23 -9 -73 23
-84 54 -12 36 3 71 38 89 33 17 55 16 90 -2z m-11 -60 c32 -16 41 -33 41 -74
0 -55 -72 -86 -129 -57 -17 9 -31 21 -31 27 0 15 30 23 43 10 16 -16 52 -14
67 4 18 21 8 48 -23 63 -27 13 -33 23 -20 35 10 10 21 9 52 -8z"/>
</g>
</svg>
